<?xml version="1.0" standalone="no"?>
<!DOCTYPE svg PUBLIC "-//W3C//DTD SVG 20010904//EN"
 "http://www.w3.org/TR/2001/REC-SVG-20010904/DTD/svg10.dtd">
<svg version="1.0" xmlns="http://www.w3.org/2000/svg"
 width="880.000000pt" height="1061.000000pt" viewBox="0 0 880.000000 1061.000000"
 preserveAspectRatio="xMidYMid meet">

<g transform="translate(0.000000,1061.000000) scale(0.100000,-0.100000)"
fill="#000000" stroke="none">
<path d="M5795 10166 c-331 -118 -548 -233 -732 -388 -192 -161 -314 -344
-409 -617 -3 -9 -29 11 -79 57 -349 332 -786 529 -1216 549 -213 10 -408 -26
-562 -103 -72 -37 -165 -103 -201 -143 -23 -26 -69 -6 475 -205 233 -85 512
-187 619 -226 107 -40 224 -82 260 -95 106 -37 102 -35 95 -64 -4 -14 -8 -27
-10 -29 -1 -1 -72 6 -156 17 -85 11 -210 26 -279 33 -165 17 -672 17 -810 0
-635 -78 -1057 -263 -1390 -608 -116 -121 -180 -206 -260 -344 -66 -117 -72
-136 -37 -126 342 103 660 144 1312 171 623 25 820 40 1060 81 205 35 426 95
603 165 40 16 75 29 77 29 3 0 -57 -53 -132 -119 -167 -144 -421 -401 -524
-531 -306 -384 -475 -770 -525 -1201 -30 -262 -8 -569 61 -832 124 -477 336
-882 615 -1171 91 -95 217 -202 226 -194 1 2 -10 46 -26 99 -52 177 -74 333
-74 539 0 190 13 307 55 489 38 165 272 877 669 2041 151 442 346 960 361 960
4 0 11 -10 15 -22 17 -56 157 -347 233 -483 260 -468 584 -865 1006 -1232 165
-143 1388 -1134 1393 -1128 15 15 -106 443 -190 665 -182 485 -435 922 -767
1320 -117 141 -368 399 -516 529 -202 179 -493 400 -681 517 -41 26 -73 49
-70 51 7 7 280 -69 467 -130 233 -77 389 -141 913 -374 838 -373 1000 -428
1331 -454 134 -10 377 0 394 16 8 9 -47 107 -144 255 -280 428 -622 730 -1038
914 -278 123 -552 184 -929 207 -267 17 -629 -7 -962 -62 -66 -10 -120 -18
-121 -17 -5 8 663 653 735 711 236 189 489 310 725 348 44 7 84 15 88 19 4 4
-79 41 -185 83 l-193 77 -225 0 -225 -1 -120 -43z"/>
<path d="M4880 7248 c-25 -146 -13 -228 148 -1033 310 -1544 304 -1504 527
-3445 50 -440 134 -1129 153 -1255 l7 -50 283 -3 282 -2 0 29 c0 57 -76 1055
-110 1446 -16 184 -50 406 -165 1100 -149 899 -212 1316 -264 1755 -17 140
-41 298 -55 351 -55 218 -159 425 -322 642 -97 130 -449 537 -464 537 -4 0
-14 -32 -20 -72z"/>
<path d="M1995 4806 c-38 -7 -106 -26 -149 -40 -87 -30 -257 -111 -268 -130
-4 -6 -8 -100 -8 -208 l0 -198 -192 -2 -193 -3 -3 -1477 -2 -1478 1000 0 1000
0 -2 1478 -3 1477 -195 5 -195 5 -3 206 -2 206 -118 56 c-172 82 -274 108
-452 113 -96 2 -169 -1 -215 -10z m425 -256 c41 -12 92 -31 113 -41 l37 -19 0
-130 0 -130 -390 0 -390 0 0 134 0 134 73 26 c127 47 190 56 342 52 107 -3
158 -9 215 -26z"/>
<path d="M665 4216 c-22 -7 -51 -18 -64 -26 -46 -24 -123 -104 -147 -152 -56
-110 -54 -69 -54 -1285 0 -786 3 -1138 11 -1175 26 -123 105 -228 209 -277 48
-23 70 -26 183 -29 l127 -4 0 1481 0 1481 -112 -1 c-62 0 -131 -6 -153 -13z"/>
<path d="M3428 4224 c-5 -4 -8 -671 -8 -1482 l0 -1474 133 4 c120 3 137 5 188
31 63 31 136 103 169 167 50 97 50 97 50 1280 0 1183 0 1183 -50 1280 -33 64
-106 136 -169 167 -50 25 -69 28 -181 31 -69 2 -128 0 -132 -4z"/>
</g>
</svg>
